<svg xmlns="http://www.w3.org/2000/svg" xmlns:xlink="http://www.w3.org/1999/xlink" width="1920" zoomAndPan="magnify" viewBox="0 0 1440 809.999993" height="1080" preserveAspectRatio="xMidYMid meet" version="1.0"><defs><clipPath id="e4181a39ea"><path d="M 373.699219 253 L 1065.949219 253 L 1065.949219 557.152344 L 373.699219 557.152344 Z M 373.699219 253 " clip-rule="nonzero"/></clipPath><clipPath id="411885c9e6"><path d="M 990 358 L 1065.949219 358 L 1065.949219 435 L 990 435 Z M 990 358 " clip-rule="nonzero"/></clipPath></defs><g clip-path="url(#e4181a39ea)"><path fill="#819caa" d="M 811.332031 393.109375 C 811.332031 393.09375 811.332031 393.09375 811.332031 393.09375 C 810.394531 391.921875 809.691406 390.417969 809.207031 388.984375 C 808.023438 385.453125 804.640625 381.105469 801.398438 377.933594 C 799.59375 376.152344 797.785156 373.144531 796.558594 370.855469 L 794.597656 372.675781 L 795.148438 378.429688 C 795.148438 378.429688 800.558594 385.921875 802.433594 388.238281 C 804.3125 390.554688 806.296875 400.710938 809.277344 401.042969 C 809.5 401.070312 809.703125 401.082031 809.898438 401.082031 C 811.03125 401.082031 811.789062 400.695312 812.269531 400.28125 C 812.035156 397.867188 811.71875 395.46875 811.332031 393.109375 Z M 1028.578125 358.671875 C 1019.070312 358.671875 1010.378906 362.21875 1003.746094 368.042969 C 984.941406 359.695312 961.03125 353.265625 939.164062 348.589844 C 893.902344 338.890625 837.835938 332.351562 776.800781 329.496094 C 776.386719 329.109375 775.988281 328.722656 775.558594 328.351562 C 773.933594 326.886719 772.277344 325.496094 770.566406 324.15625 C 770.34375 323.976562 770.125 323.8125 769.902344 323.632812 C 769.253906 323.121094 768.59375 322.625 767.917969 322.128906 C 766.386719 320.984375 764.8125 319.894531 763.214844 318.832031 C 756.109375 314.125 748.421875 310.207031 740.296875 307.242188 C 739 306.761719 737.691406 306.316406 736.378906 305.890625 L 740.917969 289.101562 C 744.808594 290.109375 748.671875 290.992188 752.464844 291.722656 L 742.410156 298.304688 L 744.089844 300.867188 L 759.515625 290.785156 L 748.328125 276.132812 L 745.886719 277.996094 L 753.101562 287.445312 C 749.484375 286.742188 745.773438 285.902344 742.050781 284.921875 L 747.652344 264.226562 C 774.484375 271.746094 789.949219 282.328125 788.832031 286.464844 C 788.445312 287.902344 784.25 290.4375 771.199219 289.789062 C 770.015625 289.707031 768.992188 290.644531 768.9375 291.832031 C 768.882812 293.03125 769.792969 294.039062 770.980469 294.109375 C 772.359375 294.179688 773.765625 294.21875 775.1875 294.21875 C 783.257812 294.21875 791.578125 292.882812 793 287.597656 C 795.523438 278.269531 772.925781 266.820312 748.769531 260.046875 L 749.609375 256.941406 C 750.050781 255.328125 749.101562 253.660156 747.484375 253.230469 C 745.871094 252.789062 744.203125 253.742188 743.773438 255.355469 L 742.917969 258.515625 C 731.441406 255.671875 720.472656 254.074219 711.65625 253.992188 C 700.605469 253.867188 694.386719 256.113281 693.171875 260.597656 C 691.957031 265.097656 696.207031 270.160156 705.808594 275.636719 C 713.449219 280.007812 723.742188 284.148438 735.082031 287.488281 L 730.570312 304.179688 C 725.328125 302.785156 719.933594 301.765625 714.417969 301.171875 C 710.414062 300.71875 706.332031 300.496094 702.207031 300.496094 C 696.800781 300.496094 691.488281 300.882812 686.273438 301.640625 C 686.257812 301.640625 686.257812 301.640625 686.257812 301.640625 C 685.96875 301.683594 685.695312 301.722656 685.402344 301.765625 C 684.78125 301.863281 684.175781 301.957031 683.554688 302.070312 L 683.542969 302.070312 C 682.742188 302.207031 681.941406 302.34375 681.140625 302.511719 C 678.269531 303.0625 675.441406 303.722656 672.65625 304.496094 C 671.925781 304.691406 671.207031 304.910156 670.476562 305.117188 C 666.339844 306.359375 662.296875 307.835938 658.378906 309.519531 C 657.730469 309.808594 657.066406 310.097656 656.40625 310.402344 C 654.554688 311.257812 652.722656 312.140625 650.929688 313.09375 C 650.375 313.382812 649.824219 313.671875 649.285156 313.976562 C 649.175781 314.03125 649.078125 314.085938 648.96875 314.140625 C 648.804688 314.238281 648.625 314.332031 648.457031 314.445312 C 648.101562 314.636719 647.726562 314.84375 647.367188 315.050781 C 646.566406 315.507812 645.78125 315.976562 644.996094 316.457031 C 644.925781 316.484375 644.859375 316.527344 644.789062 316.582031 C 644.511719 316.746094 644.222656 316.925781 643.945312 317.105469 C 643.269531 317.507812 642.609375 317.933594 641.945312 318.375 C 641.601562 318.609375 641.257812 318.832031 640.910156 319.066406 C 640.332031 319.453125 639.738281 319.851562 639.160156 320.253906 C 639.035156 320.347656 638.898438 320.429688 638.757812 320.527344 C 638.304688 320.84375 637.847656 321.175781 637.394531 321.519531 C 634.871094 323.34375 632.425781 325.273438 630.066406 327.300781 C 629.722656 327.589844 629.390625 327.894531 629.0625 328.199219 C 629.046875 328.210938 629.046875 328.210938 629.035156 328.226562 C 628.730469 328.503906 628.414062 328.765625 628.109375 329.039062 C 628.09375 329.039062 628.09375 329.039062 628.09375 329.039062 C 627.792969 329.328125 627.488281 329.59375 627.199219 329.867188 L 627.183594 329.867188 C 627.171875 329.867188 627.171875 329.867188 627.15625 329.867188 C 569.117188 332.902344 515.839844 339.289062 472.476562 348.589844 C 427.421875 358.246094 373.699219 375.257812 373.699219 401.425781 C 373.699219 419.804688 400.160156 433.695312 432.316406 443.808594 C 464.476562 453.90625 502.304688 460.226562 525.066406 463.425781 C 551.488281 467.152344 580.042969 469.992188 609.914062 471.9375 C 624.480469 493.984375 646.734375 510.496094 672.851562 517.671875 L 663.234375 553.265625 C 662.792969 554.878906 663.746094 556.535156 665.359375 556.976562 C 665.621094 557.046875 665.898438 557.085938 666.144531 557.085938 C 667.484375 557.085938 668.710938 556.191406 669.070312 554.835938 L 678.726562 519.121094 C 686.300781 520.761719 694.152344 521.644531 702.207031 521.644531 C 732.738281 521.644531 760.371094 509.285156 780.390625 489.265625 C 782.679688 486.976562 784.871094 484.589844 786.957031 482.105469 C 788.40625 480.367188 789.8125 478.601562 791.148438 476.78125 C 792.210938 475.359375 793.207031 473.882812 794.199219 472.40625 C 808.585938 471.550781 822.699219 470.488281 836.414062 469.21875 C 850.140625 467.953125 863.480469 466.488281 876.339844 464.820312 C 924.171875 458.613281 964.234375 449.835938 992.210938 439.421875 C 999.992188 436.523438 1006.78125 433.542969 1012.589844 430.453125 C 1017.445312 432.742188 1022.867188 434.027344 1028.578125 434.027344 C 1049.355469 434.027344 1066.253906 417.128906 1066.253906 396.351562 C 1066.253906 375.574219 1049.355469 358.671875 1028.578125 358.671875 Z M 707.945312 271.882812 C 698.8125 266.667969 696.980469 263.054688 697.335938 261.730469 C 697.695312 260.417969 701.105469 258.199219 711.617188 258.308594 C 720.085938 258.390625 730.667969 259.9375 741.789062 262.683594 L 736.214844 283.308594 C 725.21875 280.078125 715.300781 276.078125 707.945312 271.882812 Z M 564.800781 462.128906 C 551.40625 460.761719 538.421875 459.203125 525.910156 457.4375 C 481.347656 451.175781 444.238281 442.59375 418.605469 432.632812 C 393.179688 422.769531 379.753906 411.96875 379.753906 401.425781 C 379.753906 393.246094 388.117188 384.691406 403.953125 376.664062 C 420.300781 368.386719 443.78125 360.921875 473.746094 354.507812 C 515.121094 345.636719 565.65625 339.429688 620.769531 336.28125 C 617.570312 339.757812 614.589844 343.457031 611.859375 347.332031 C 611.484375 347.871094 611.113281 348.410156 610.742188 348.949219 C 610.328125 349.554688 609.914062 350.160156 609.527344 350.769531 C 609.179688 351.292969 608.835938 351.832031 608.503906 352.367188 C 608.269531 352.714844 608.050781 353.074219 607.84375 353.429688 C 607.457031 354.039062 607.085938 354.660156 606.726562 355.292969 C 605.234375 357.847656 603.84375 360.46875 602.546875 363.144531 C 602.53125 363.171875 602.53125 363.171875 602.519531 363.183594 C 602.503906 363.199219 602.503906 363.210938 602.503906 363.226562 C 602.367188 363.503906 602.226562 363.777344 602.105469 364.066406 C 595.398438 378.332031 591.648438 394.265625 591.648438 411.070312 C 591.648438 430.910156 596.890625 449.519531 606.035156 465.605469 C 591.949219 464.640625 578.183594 463.480469 564.800781 462.128906 Z M 952.988281 444.800781 C 930.914062 450.25 904.839844 455.011719 875.554688 458.816406 C 851.257812 461.964844 825.226562 464.40625 798.144531 466.089844 C 800.199219 462.515625 802.074219 458.816406 803.71875 455.011719 C 805.910156 449.960938 807.71875 444.71875 809.140625 439.324219 C 809.746094 437.0625 810.269531 434.785156 810.710938 432.46875 C 810.890625 431.570312 811.058594 430.660156 811.207031 429.75 C 811.402344 428.675781 811.566406 427.597656 811.71875 426.507812 C 811.761719 426.164062 811.816406 425.820312 811.855469 425.472656 C 811.996094 424.34375 812.148438 423.183594 812.257812 422.023438 C 812.296875 421.472656 812.355469 420.921875 812.394531 420.355469 C 812.449219 419.75 812.503906 419.128906 812.535156 418.519531 C 812.574219 417.898438 812.617188 417.292969 812.644531 416.671875 C 812.683594 415.953125 812.710938 415.25 812.738281 414.546875 C 812.753906 414.007812 812.769531 413.484375 812.769531 412.945312 C 812.78125 412.324219 812.796875 411.691406 812.796875 411.070312 C 812.796875 407.429688 812.617188 403.828125 812.269531 400.28125 C 812.035156 397.867188 811.71875 395.46875 811.332031 393.109375 C 811.332031 393.09375 811.332031 393.09375 811.332031 393.09375 C 810.339844 386.957031 808.820312 380.996094 806.847656 375.230469 C 806.460938 374.097656 806.0625 372.980469 805.636719 371.875 C 804.988281 370.179688 804.3125 368.496094 803.578125 366.839844 C 802.226562 363.75 800.75 360.730469 799.125 357.792969 C 794.734375 349.832031 789.382812 342.476562 783.246094 335.871094 C 841.324219 338.863281 894.605469 345.222656 937.894531 354.507812 C 963.046875 359.886719 983.617188 366.011719 999.246094 372.746094 C 994.03125 379.203125 990.898438 387.410156 990.898438 396.351562 C 990.898438 408.835938 997.011719 419.914062 1006.394531 426.769531 C 993.136719 433.253906 975.078125 439.367188 952.988281 444.800781 Z M 952.988281 444.800781 " fill-opacity="1" fill-rule="nonzero"/></g><path fill="#316faf" d="M 702.207031 521.921875 C 694.332031 521.921875 686.414062 521.070312 678.667969 519.390625 C 676.691406 518.960938 674.710938 518.472656 672.777344 517.9375 C 646.9375 510.839844 624.53125 494.554688 609.683594 472.089844 C 608.359375 470.101562 607.089844 468.023438 605.796875 465.742188 C 596.359375 449.144531 591.371094 430.242188 591.371094 411.070312 C 591.371094 394.605469 594.898438 378.75 601.855469 363.949219 C 601.976562 363.664062 602.117188 363.382812 602.257812 363.101562 L 602.328125 362.984375 L 602.535156 362.558594 L 602.773438 362.984375 C 609.535156 372.71875 618.566406 384.792969 620.027344 386.058594 C 622.308594 388.027344 627.796875 389.964844 631.101562 389.964844 C 634.667969 389.964844 637.597656 391.296875 639.582031 393.820312 C 640.238281 394.640625 640.613281 395.515625 641.011719 396.4375 C 641.917969 398.539062 642.855469 400.710938 647.328125 402.679688 C 650.234375 403.960938 651.546875 404.964844 651.859375 406.140625 C 652.226562 407.527344 651.144531 408.976562 649.511719 411.171875 L 648.875 412.035156 C 646.617188 415.09375 646.328125 417.585938 646.8125 418.894531 C 647.011719 419.433594 647.34375 419.792969 647.71875 419.878906 C 648.808594 420.128906 648.894531 422.164062 648.992188 424.515625 C 649.046875 425.878906 649.105469 427.285156 649.363281 428.363281 C 649.703125 429.878906 651.144531 430.863281 652.539062 431.816406 C 653.6875 432.601562 654.773438 433.347656 655.285156 434.371094 C 656.441406 436.65625 658.105469 439.945312 662.863281 445.351562 C 667.644531 450.769531 666.132812 461.273438 665.132812 468.222656 L 665.023438 468.96875 C 664.421875 473.253906 666.484375 476.421875 668.308594 479.21875 C 669.398438 480.894531 670.339844 482.339844 670.554688 483.789062 C 670.625 484.261719 670.691406 484.773438 670.757812 485.3125 C 671.203125 488.898438 671.820312 493.8125 675.3125 494.820312 C 679.539062 496.046875 680.699219 497.394531 680.746094 497.449219 L 683.898438 499.246094 L 683.898438 498.730469 C 683.898438 498.179688 683.007812 496.804688 682.222656 495.589844 C 681.726562 494.824219 681.214844 494.03125 680.84375 493.34375 C 679.859375 491.488281 678.683594 481.539062 679.609375 478.777344 C 680.058594 477.429688 681.222656 476.269531 682.449219 475.039062 C 683.6875 473.800781 684.96875 472.523438 685.457031 471.050781 C 686.367188 468.332031 688.835938 466.960938 691.011719 465.753906 C 691.308594 465.589844 691.597656 465.429688 691.875 465.269531 C 693.082031 464.582031 693.386719 462.53125 693.738281 460.160156 C 694.003906 458.359375 694.308594 456.316406 695.085938 454.582031 C 696.761719 450.777344 703.308594 449.734375 704.414062 449.582031 L 706.664062 445.078125 L 706.859375 435.828125 L 711.390625 430.300781 L 712.238281 421.390625 C 710.527344 421.207031 701.597656 420.164062 697.269531 418.007812 C 695.136719 416.941406 694.027344 414.410156 692.953125 411.960938 C 691.601562 408.875 690.328125 405.960938 687.195312 405.960938 C 687.195312 405.960938 686.691406 405.976562 686.5625 405.976562 C 682.515625 405.976562 677.871094 403.109375 673.777344 400.582031 C 671.628906 399.257812 669.605469 398.007812 668.007812 397.410156 C 667.035156 397.046875 665.867188 396.863281 664.542969 396.863281 C 660.722656 396.863281 656.375 398.335938 653.5 399.3125 L 652.585938 399.621094 C 651.71875 399.910156 650.878906 400.058594 650.089844 400.058594 C 647.546875 400.058594 645.828125 398.5 645.605469 395.988281 C 645.34375 393.066406 644.070312 391.734375 640.355469 390.5 C 639.5625 390.238281 639.09375 389.867188 638.917969 389.363281 C 638.625 388.511719 639.265625 387.546875 639.945312 386.523438 C 640.539062 385.625 641.152344 384.699219 641.054688 383.941406 C 641.039062 383.847656 641.011719 383.632812 640.3125 383.632812 C 639.734375 383.632812 638.902344 383.78125 637.941406 383.957031 C 636.605469 384.195312 634.945312 384.496094 633.308594 384.496094 C 630.53125 384.496094 628.511719 383.640625 627.132812 381.882812 C 625.347656 379.605469 625.007812 376.9375 626.179688 374.371094 C 627.378906 371.742188 629.769531 370.035156 631.296875 369.960938 C 632.558594 369.890625 634.007812 369.328125 635.6875 368.675781 C 637.578125 367.941406 639.722656 367.109375 642.027344 366.871094 C 642.144531 366.859375 642.261719 366.851562 642.375 366.851562 C 644.789062 366.851562 646.140625 369.480469 647.332031 371.796875 C 648.164062 373.421875 648.953125 374.953125 649.851562 374.953125 C 650.480469 374.953125 650.605469 373.863281 650.753906 372.078125 C 651.015625 368.984375 651.410156 364.3125 656.574219 363.339844 C 661.804688 362.351562 665.410156 357.316406 668.589844 352.871094 C 670.039062 350.847656 671.410156 348.9375 672.773438 347.671875 C 674.457031 346.101562 675.722656 345.367188 676.757812 345.367188 C 677.632812 345.367188 678.238281 345.875 678.820312 346.363281 C 679.101562 346.601562 679.394531 346.847656 679.722656 347.039062 C 680.328125 347.390625 681.113281 347.589844 681.882812 347.589844 C 682.734375 347.589844 684.765625 347.3125 685.203125 344.722656 C 685.257812 344.386719 685.199219 344.117188 685.03125 343.894531 C 684.46875 343.160156 682.699219 342.988281 680.992188 342.820312 C 678.429688 342.570312 675.773438 342.308594 675.773438 340.214844 C 675.773438 337.871094 681.03125 336.851562 686.59375 335.773438 C 690.296875 335.054688 694.125 334.3125 695.453125 333.226562 C 696.027344 332.757812 696.3125 332.195312 696.328125 331.507812 C 696.382812 328.789062 692.0625 324.941406 690.4375 323.492188 C 688.59375 321.851562 685.957031 320.875 683.382812 320.875 C 680.757812 320.875 678.152344 321.8125 675.636719 323.660156 C 671.339844 326.804688 667.226562 328.605469 664.34375 328.605469 C 662.019531 328.605469 660.472656 327.457031 659.878906 325.277344 C 659.710938 324.667969 659.824219 324.042969 660.210938 323.421875 C 663.035156 318.914062 680.308594 315.390625 682.804688 314.902344 L 682.414062 312.941406 C 681.726562 312.835938 679.441406 312.402344 677.15625 310.9375 C 674.527344 309.265625 673.117188 306.5625 672.398438 304.59375 L 672.296875 304.3125 L 672.582031 304.230469 C 675.363281 303.460938 678.226562 302.792969 681.089844 302.238281 C 681.890625 302.074219 682.691406 301.9375 683.496094 301.796875 L 683.625 302.332031 C 683.449219 302.386719 683.285156 302.441406 683.140625 302.492188 L 684.34375 303.09375 L 684.140625 305.257812 L 677.894531 306.308594 L 677.730469 308.132812 C 679.128906 308.230469 685.210938 308.691406 688.03125 309.332031 C 690.679688 309.9375 693.367188 311.71875 693.910156 312.847656 C 694.035156 313.105469 694.050781 313.335938 693.957031 313.53125 C 693.789062 313.855469 693.328125 314.089844 692.691406 314.417969 C 691.503906 315.023438 689.875 315.859375 690.121094 317.453125 C 690.253906 318.34375 690.972656 318.796875 692.257812 318.796875 C 693.023438 318.796875 693.789062 318.632812 694.203125 318.527344 C 694.03125 318.121094 693.808594 317.386719 694.039062 316.726562 C 694.199219 316.257812 694.550781 315.910156 695.082031 315.691406 C 695.730469 315.429688 696.535156 315.308594 697.3125 315.195312 C 698.566406 315.007812 699.757812 314.828125 700.171875 314.125 C 699.46875 313.855469 697.757812 313.054688 698.019531 311.703125 C 698.226562 310.566406 698.417969 308.632812 698.484375 307.921875 C 697.285156 307.8125 692.507812 307.394531 691.226562 307.394531 C 689.605469 307.394531 688.199219 305.597656 688.136719 305.519531 L 687.191406 303.355469 L 690.253906 303.785156 L 690.484375 303.390625 C 689.667969 303.058594 687.367188 302.144531 686.3125 301.925781 L 686.234375 301.367188 C 691.472656 300.605469 696.847656 300.21875 702.207031 300.21875 C 706.378906 300.21875 710.496094 300.449219 714.449219 300.898438 L 714.769531 300.933594 L 714.683594 301.246094 C 714.402344 302.253906 713.828125 303.171875 712.976562 303.96875 C 710.394531 306.398438 709.132812 309.476562 709.253906 311.140625 C 709.285156 311.527344 709.394531 311.808594 709.566406 311.929688 C 709.964844 312.207031 710.347656 312.828125 710.792969 313.542969 C 711.628906 314.878906 712.667969 316.542969 714.101562 316.542969 C 714.261719 316.542969 714.429688 316.523438 714.597656 316.480469 C 717.1875 315.832031 719.320312 311.351562 719.339844 311.304688 L 719.433594 311.109375 L 719.644531 311.152344 C 719.917969 311.207031 720.273438 311.234375 720.703125 311.234375 C 725.460938 311.234375 738.007812 307.914062 740.191406 306.988281 L 740.292969 306.945312 L 740.394531 306.984375 C 748.417969 309.914062 756.148438 313.820312 763.367188 318.601562 L 763.683594 318.8125 L 763.382812 319.046875 C 761.902344 320.222656 760.121094 321.078125 758.890625 321.585938 C 757.910156 321.988281 757.117188 322.25 756.75 322.367188 L 757.207031 326.703125 C 757.960938 326.578125 760.027344 326.261719 761.851562 326.261719 C 763.242188 326.261719 764.195312 326.433594 764.769531 326.792969 C 766.269531 327.730469 767.734375 328.949219 768.148438 329.300781 L 770.273438 328.679688 C 770.183594 327.992188 769.972656 325.984375 770.292969 324.109375 L 770.375 323.65625 L 770.738281 323.9375 C 772.433594 325.269531 774.074219 326.644531 775.746094 328.144531 L 775.867188 328.253906 L 775.527344 329.785156 L 772.359375 331.585938 C 772.417969 332.171875 772.246094 333.078125 771.242188 333.335938 C 770.460938 333.527344 767.769531 333.8125 765.652344 333.8125 C 763.378906 333.8125 762.878906 333.496094 762.695312 333.222656 C 762.121094 332.367188 762.007812 330.113281 761.988281 329.558594 L 761.421875 328.882812 L 760.507812 329.570312 C 760.644531 330.382812 761.070312 333.703125 758.964844 334.355469 C 757.324219 334.863281 754.925781 335.941406 753.011719 339.449219 C 751.285156 342.648438 748.277344 349.230469 748.246094 349.296875 L 748.183594 349.433594 L 748.035156 349.457031 C 747.976562 349.464844 742.199219 350.269531 740.011719 352.179688 C 738.136719 353.804688 738.527344 357.589844 738.660156 358.542969 C 738.851562 358.546875 739.148438 358.550781 739.527344 358.550781 C 741.457031 358.550781 747.878906 358.417969 749.636719 356.699219 C 750.773438 355.597656 751.613281 353.769531 752.355469 352.15625 C 753.101562 350.527344 753.691406 349.242188 754.449219 348.992188 C 754.9375 348.828125 755.476562 348.769531 756 348.714844 C 756.914062 348.617188 757.699219 348.535156 757.96875 347.949219 C 758.199219 347.453125 758.636719 347.191406 759.242188 347.191406 C 760.167969 347.191406 761.445312 347.804688 762.941406 348.964844 C 765.027344 350.5625 767.890625 354.148438 768.484375 354.90625 L 771.390625 354.304688 C 770.507812 353.300781 768.835938 351.488281 768.1875 351.183594 C 767.292969 350.789062 763.738281 348.597656 763.101562 346.460938 C 762.941406 345.925781 762.980469 345.492188 763.21875 345.175781 C 763.46875 344.835938 763.914062 344.667969 764.535156 344.667969 C 765.828125 344.667969 767.914062 345.425781 770.410156 346.804688 C 774.933594 349.292969 775.949219 353.765625 776.121094 354.761719 L 778.042969 355.195312 C 778.578125 354.53125 780.902344 351.839844 783.570312 351.839844 L 783.773438 351.847656 C 786.691406 351.984375 788.777344 352.355469 788.800781 352.359375 L 789.269531 352.445312 L 787.066406 355.050781 L 792.203125 360.476562 C 792.660156 360.308594 793.917969 359.902344 795.25 359.902344 C 796.78125 359.902344 797.894531 360.429688 798.554688 361.464844 C 799.863281 363.488281 797.632812 365.894531 796.1875 367.148438 L 796.109375 367.214844 L 796.007812 367.214844 C 795.984375 367.214844 793.605469 367.160156 791.132812 367.160156 C 789.902344 367.160156 788.648438 367.171875 787.660156 367.214844 L 787.476562 367.21875 C 784.777344 367.21875 779.539062 364.859375 778.078125 364.179688 C 778.019531 364.703125 777.804688 365.601562 777.066406 366.417969 C 776.121094 367.457031 774.636719 368.019531 772.648438 368.097656 C 772.523438 368.101562 772.398438 368.105469 772.273438 368.105469 C 766.832031 368.105469 762.875 363.039062 762.554688 361.363281 C 762.292969 360.113281 762.414062 359.097656 762.503906 358.632812 L 760.183594 357.972656 C 759.429688 358.292969 754.167969 360.464844 747.847656 361.472656 C 742.824219 362.292969 738.625 365.359375 735.011719 370.84375 C 734.484375 371.648438 733.675781 372.707031 732.734375 373.933594 C 729.871094 377.683594 725.945312 382.816406 725.117188 386.980469 C 724.058594 392.378906 725.558594 396.925781 730.132812 402.183594 C 733.5 406.035156 736.925781 407.535156 742.351562 407.535156 C 743.632812 407.535156 745.085938 407.449219 746.796875 407.277344 C 754.503906 406.507812 756.492188 406.285156 756.492188 406.285156 L 756.578125 406.277344 L 761.28125 408.789062 L 764.167969 407.519531 L 766.472656 412.703125 L 761.617188 416.992188 C 762.355469 418.292969 766.339844 425.382812 767.054688 428.347656 C 767.839844 431.542969 767.851562 433.410156 767.851562 433.488281 L 764.65625 442.300781 C 765.210938 443.433594 769.507812 452.347656 769.929688 455.414062 C 770.351562 458.460938 773.425781 460.613281 773.457031 460.632812 L 773.53125 460.683594 L 776.394531 468.941406 L 791.566406 476.683594 L 791.371094 476.945312 C 790.160156 478.597656 788.785156 480.34375 787.167969 482.285156 C 785.113281 484.730469 782.898438 487.144531 780.585938 489.460938 C 759.652344 510.390625 731.816406 521.921875 702.207031 521.921875 Z M 809.898438 401.359375 C 809.695312 401.359375 809.476562 401.34375 809.246094 401.316406 C 807.214844 401.089844 805.773438 397.140625 804.378906 393.320312 C 803.617188 391.222656 802.894531 389.246094 802.21875 388.414062 C 800.359375 386.113281 794.980469 378.667969 794.925781 378.589844 L 794.882812 378.53125 L 794.308594 372.566406 L 796.632812 370.410156 L 796.800781 370.722656 C 797.988281 372.941406 799.785156 375.957031 801.59375 377.734375 C 804.566406 380.644531 808.199219 385.105469 809.46875 388.894531 C 809.847656 390.019531 810.519531 391.632812 811.546875 392.921875 L 811.609375 392.996094 L 811.609375 393.09375 C 812 395.476562 812.316406 397.898438 812.546875 400.253906 L 812.558594 400.398438 L 812.449219 400.492188 C 811.988281 400.886719 811.171875 401.359375 809.898438 401.359375 Z M 611.632812 347.175781 C 614.367188 343.289062 617.375 339.5625 620.566406 336.097656 C 622.574219 333.898438 624.667969 331.792969 626.96875 329.664062 C 627.269531 329.378906 627.589844 329.101562 627.90625 328.835938 L 627.925781 328.824219 C 628.136719 328.628906 628.355469 328.441406 628.574219 328.257812 L 628.851562 328.015625 L 629.21875 328.429688 C 629.066406 328.570312 628.445312 329.109375 628.296875 329.242188 L 627.832031 329.664062 L 627.832031 329.65625 C 627.828125 329.664062 627.308594 330.144531 627.308594 330.144531 L 627.292969 330.144531 C 625.066406 332.222656 622.949219 334.351562 621 336.46875 C 617.820312 339.9375 614.820312 343.644531 612.082031 347.492188 Z M 647.820312 314.46875 L 648.835938 313.898438 L 649.160156 313.726562 L 649.417969 314.214844 C 649.109375 314.386719 648.855469 314.527344 648.601562 314.679688 C 648.425781 314.769531 648.269531 314.847656 648.117188 314.9375 Z M 653.570312 313.441406 C 652.6875 313.441406 651.796875 313.414062 650.914062 313.367188 L 649.917969 313.316406 L 650.800781 312.847656 C 652.359375 312.019531 654.101562 311.164062 656.289062 310.152344 C 656.757812 309.9375 658.265625 309.265625 658.265625 309.265625 C 662.230469 307.5625 666.3125 306.078125 670.398438 304.855469 L 671.15625 304.625 L 670.703125 305.277344 C 668.648438 308.222656 665.027344 311.949219 659.460938 312.964844 C 657.753906 313.28125 655.773438 313.441406 653.570312 313.441406 Z M 685.363281 301.5 L 686.214844 301.367188 L 686.292969 301.914062 L 685.449219 302.042969 Z M 685.363281 301.5 " fill-opacity="1" fill-rule="nonzero"/><path fill="#afc881" d="M 680.398438 497.867188 C 680.3125 497.792969 679.1875 496.519531 675.160156 495.351562 C 671.316406 494.238281 670.675781 489.117188 670.210938 485.378906 C 670.144531 484.847656 670.078125 484.339844 670.011719 483.871094 C 669.8125 482.539062 668.898438 481.140625 667.84375 479.519531 C 666.0625 476.785156 663.847656 473.378906 664.476562 468.890625 L 664.585938 468.140625 C 665.570312 461.292969 667.0625 450.941406 662.449219 445.714844 C 657.644531 440.257812 655.960938 436.925781 654.847656 434.722656 C 654.34375 433.722656 653.316406 433.019531 652.226562 432.273438 C 650.746094 431.257812 649.214844 430.210938 648.824219 428.488281 C 648.558594 427.359375 648.5 425.925781 648.441406 424.539062 C 648.363281 422.679688 648.273438 420.574219 647.597656 420.417969 C 647.035156 420.289062 646.558594 419.800781 646.296875 419.085938 C 646.035156 418.386719 645.425781 415.777344 648.429688 411.707031 L 649.070312 410.84375 C 650.609375 408.773438 651.625 407.410156 651.324219 406.28125 C 651.066406 405.300781 649.804688 404.375 647.105469 403.183594 C 642.4375 401.128906 641.410156 398.753906 640.507812 396.65625 C 640.121094 395.765625 639.761719 394.929688 639.152344 394.164062 C 637.273438 391.777344 634.492188 390.515625 631.101562 390.515625 C 627.691406 390.515625 622.027344 388.511719 619.664062 386.472656 C 618.015625 385.046875 608.589844 372.328125 602.320312 363.300781 L 602.226562 363.167969 L 602.296875 363.023438 C 603.601562 360.328125 605.011719 357.683594 606.488281 355.15625 C 606.847656 354.519531 607.222656 353.894531 607.609375 353.28125 C 607.816406 352.929688 608.039062 352.5625 608.277344 352.214844 C 608.601562 351.683594 608.949219 351.144531 609.296875 350.617188 C 609.671875 350.027344 610.078125 349.429688 610.484375 348.835938 L 611.632812 347.175781 C 614.371094 343.289062 617.375 339.5625 620.566406 336.097656 C 622.574219 333.898438 624.667969 331.792969 626.96875 329.664062 C 627.371094 329.292969 627.785156 328.9375 628.199219 328.578125 C 628.199219 328.578125 629.636719 327.316406 629.890625 327.09375 C 632.214844 325.09375 634.683594 323.144531 637.234375 321.296875 C 637.6875 320.957031 638.144531 320.617188 638.601562 320.300781 L 639.003906 320.027344 C 639.589844 319.621094 640.175781 319.226562 640.765625 318.832031 L 641.792969 318.144531 C 642.460938 317.703125 643.125 317.273438 643.808594 316.867188 C 644.003906 316.738281 644.214844 316.597656 644.425781 316.46875 C 645.421875 315.84375 646.34375 315.300781 647.234375 314.808594 C 647.417969 314.691406 647.617188 314.578125 647.832031 314.464844 C 648.050781 314.335938 648.835938 313.898438 648.835938 313.898438 C 649.484375 313.539062 650.136719 313.195312 650.800781 312.847656 L 650.867188 312.8125 L 650.941406 312.816406 C 651.816406 312.863281 652.695312 312.886719 653.574219 312.886719 C 655.738281 312.886719 657.6875 312.730469 659.363281 312.421875 C 664.746094 311.4375 668.253906 307.820312 670.25 304.960938 L 670.308594 304.878906 L 671.191406 304.625 C 671.65625 304.488281 672.117188 304.355469 672.585938 304.230469 L 672.828125 304.167969 L 672.917969 304.402344 C 673.605469 306.292969 674.957031 308.882812 677.453125 310.472656 C 680.011719 312.113281 682.648438 312.414062 682.675781 312.417969 L 682.875 312.441406 L 683.453125 315.339844 L 683.179688 315.390625 C 682.984375 315.429688 663.53125 319.160156 660.679688 323.714844 C 660.375 324.207031 660.285156 324.671875 660.410156 325.132812 C 660.941406 327.070312 662.265625 328.054688 664.34375 328.054688 C 667.109375 328.054688 671.105469 326.289062 675.308594 323.214844 C 677.921875 321.296875 680.636719 320.320312 683.382812 320.320312 C 687.28125 320.320312 689.871094 322.25 690.800781 323.082031 C 693.660156 325.625 696.933594 328.882812 696.878906 331.515625 C 696.863281 332.363281 696.5 333.082031 695.800781 333.65625 C 694.367188 334.824219 690.644531 335.546875 686.699219 336.3125 C 681.835938 337.257812 676.328125 338.324219 676.328125 340.214844 C 676.328125 341.808594 678.726562 342.042969 681.046875 342.273438 C 682.957031 342.460938 684.757812 342.636719 685.46875 343.558594 C 685.734375 343.902344 685.824219 344.324219 685.746094 344.8125 C 685.394531 346.898438 683.949219 348.144531 681.882812 348.144531 C 681.019531 348.144531 680.132812 347.914062 679.445312 347.515625 C 679.074219 347.300781 678.765625 347.039062 678.464844 346.785156 C 677.910156 346.320312 677.433594 345.917969 676.757812 345.917969 C 675.882812 345.917969 674.703125 346.625 673.148438 348.074219 C 671.824219 349.304688 670.472656 351.191406 669.039062 353.195312 C 665.796875 357.722656 662.125 362.851562 656.675781 363.882812 C 651.925781 364.773438 651.566406 369.023438 651.304688 372.125 C 651.144531 374.011719 651.019531 375.503906 649.851562 375.503906 C 648.617188 375.503906 647.792969 373.902344 646.839844 372.050781 C 645.722656 369.871094 644.453125 367.402344 642.375 367.402344 C 642.28125 367.402344 642.183594 367.40625 642.085938 367.417969 C 639.851562 367.648438 637.746094 368.46875 635.886719 369.191406 C 634.238281 369.832031 632.679688 370.4375 631.324219 370.511719 C 629.953125 370.578125 627.761719 372.238281 626.683594 374.597656 C 625.601562 376.96875 625.914062 379.4375 627.566406 381.542969 C 628.835938 383.160156 630.714844 383.945312 633.308594 383.945312 C 634.898438 383.945312 636.53125 383.648438 637.84375 383.410156 C 638.832031 383.234375 639.683594 383.078125 640.3125 383.078125 C 641.097656 383.078125 641.53125 383.34375 641.601562 383.871094 C 641.726562 384.832031 641.054688 385.847656 640.40625 386.828125 C 639.828125 387.695312 639.238281 388.589844 639.441406 389.183594 C 639.554688 389.507812 639.917969 389.773438 640.53125 389.976562 C 643.933594 391.105469 645.839844 392.390625 646.152344 395.941406 C 646.351562 398.171875 647.824219 399.503906 650.09375 399.503906 C 650.820312 399.503906 651.601562 399.367188 652.414062 399.09375 L 653.320312 398.789062 C 656.234375 397.804688 660.632812 396.3125 664.542969 396.3125 C 665.933594 396.3125 667.167969 396.507812 668.199219 396.890625 C 669.847656 397.511719 671.898438 398.773438 674.066406 400.113281 C 678.101562 402.601562 682.671875 405.421875 686.5625 405.421875 C 686.683594 405.421875 687.195312 405.40625 687.195312 405.40625 C 690.6875 405.40625 692.097656 408.625 693.460938 411.738281 C 694.492188 414.097656 695.5625 416.535156 697.515625 417.515625 C 702.121094 419.808594 712.464844 420.855469 712.566406 420.867188 L 712.839844 420.894531 L 711.925781 430.523438 L 707.40625 436.03125 L 707.1875 445.207031 L 704.773438 450.09375 L 704.628906 450.109375 C 704.554688 450.121094 697.257812 451.023438 695.589844 454.804688 C 694.84375 456.472656 694.546875 458.472656 694.285156 460.238281 C 693.914062 462.753906 693.589844 464.925781 692.148438 465.75 C 691.871094 465.910156 691.578125 466.070312 691.28125 466.238281 C 689.191406 467.394531 686.824219 468.707031 685.984375 471.226562 C 685.453125 472.820312 684.125 474.144531 682.84375 475.429688 C 681.660156 476.609375 680.542969 477.726562 680.132812 478.949219 C 679.261719 481.546875 680.402344 491.328125 681.332031 493.082031 C 681.6875 493.75 682.195312 494.53125 682.6875 495.289062 C 683.632812 496.75 684.453125 498.015625 684.453125 498.730469 L 684.453125 500.199219 Z M 775.945312 469.332031 L 773.066406 461.035156 C 772.558594 460.667969 769.800781 458.535156 769.382812 455.488281 C 768.953125 452.367188 764.160156 442.539062 764.109375 442.4375 L 764.058594 442.335938 L 767.3125 433.398438 C 767.296875 433.398438 767.269531 431.539062 766.515625 428.476562 C 765.761719 425.351562 761.074219 417.152344 761.027344 417.070312 L 760.914062 416.875 L 765.804688 412.558594 L 763.886719 408.246094 L 761.253906 409.40625 L 756.46875 406.84375 C 756.015625 406.890625 753.675781 407.144531 746.851562 407.828125 C 745.121094 408 743.648438 408.085938 742.351562 408.085938 C 736.816406 408.085938 733.15625 406.480469 729.714844 402.546875 C 725.015625 397.140625 723.480469 392.457031 724.578125 386.875 C 725.425781 382.582031 729.398438 377.390625 732.296875 373.597656 C 733.226562 372.378906 734.035156 371.328125 734.550781 370.539062 C 738.203125 364.996094 742.648438 361.761719 747.757812 360.925781 C 754.484375 359.855469 760 357.453125 760.054688 357.429688 L 760.144531 357.386719 L 763.164062 358.25 L 763.089844 358.511719 C 763.089844 358.523438 762.769531 359.703125 763.09375 361.253906 C 763.386719 362.773438 767.210938 367.550781 772.273438 367.550781 C 772.390625 367.550781 772.507812 367.550781 772.625 367.546875 C 774.453125 367.476562 775.808594 366.972656 776.648438 366.054688 C 777.597656 365.011719 777.546875 363.777344 777.546875 363.765625 L 777.523438 363.300781 L 777.941406 363.503906 C 778.007812 363.535156 784.515625 366.664062 787.476562 366.664062 L 787.632812 366.660156 C 788.628906 366.621094 789.890625 366.605469 791.132812 366.605469 C 793.324219 366.605469 795.441406 366.648438 795.90625 366.660156 C 797.214844 365.507812 799.148438 363.402344 798.09375 361.761719 C 797.535156 360.894531 796.582031 360.457031 795.25 360.457031 C 793.722656 360.457031 792.246094 361.046875 792.234375 361.054688 L 792.058594 361.125 L 786.324219 355.070312 L 788.222656 352.824219 C 787.453125 352.710938 785.8125 352.492188 783.742188 352.394531 L 783.570312 352.390625 C 780.867188 352.390625 778.398438 355.632812 778.375 355.667969 L 778.265625 355.808594 L 775.628906 355.21875 L 775.605469 355.023438 C 775.597656 354.972656 774.894531 349.898438 770.144531 347.285156 C 767.726562 345.953125 765.734375 345.21875 764.535156 345.21875 C 764.234375 345.21875 763.835938 345.265625 763.660156 345.503906 C 763.5 345.714844 763.554688 346.054688 763.628906 346.300781 C 764.167969 348.105469 767.3125 350.191406 768.417969 350.679688 C 769.398438 351.136719 771.839844 353.980469 772.113281 354.300781 L 772.417969 354.65625 L 768.261719 355.515625 L 768.15625 355.378906 C 768.121094 355.335938 764.839844 351.109375 762.605469 349.402344 C 761.222656 348.332031 760.03125 347.742188 759.242188 347.742188 C 758.859375 347.742188 758.605469 347.886719 758.46875 348.179688 C 758.070312 349.050781 757.046875 349.160156 756.058594 349.261719 C 755.566406 349.316406 755.054688 349.367188 754.625 349.511719 C 754.09375 349.6875 753.492188 351 752.855469 352.386719 C 752.09375 354.042969 751.230469 355.921875 750.023438 357.09375 C 748.230469 358.839844 742.679688 359.101562 739.527344 359.101562 C 738.839844 359.101562 738.414062 359.085938 738.414062 359.085938 L 738.191406 359.078125 L 738.148438 358.859375 C 738.113281 358.65625 737.269531 353.824219 739.648438 351.761719 C 741.78125 349.898438 746.847656 349.074219 747.808594 348.929688 C 748.25 347.964844 750.929688 342.140625 752.527344 339.1875 C 754.054688 336.378906 756.046875 334.675781 758.800781 333.824219 C 760.675781 333.246094 759.945312 329.546875 759.933594 329.507812 L 759.902344 329.339844 L 761.503906 328.125 L 762.535156 329.351562 L 762.539062 329.445312 C 762.558594 330.183594 762.703125 332.246094 763.152344 332.914062 C 763.160156 332.929688 763.410156 333.257812 765.652344 333.257812 C 767.695312 333.257812 770.371094 332.980469 771.109375 332.800781 C 771.988281 332.574219 771.808594 331.605469 771.785156 331.5 L 771.746094 331.300781 L 775.042969 329.425781 L 775.390625 327.835938 L 775.742188 328.140625 C 776.054688 328.414062 776.355469 328.695312 776.65625 328.980469 L 776.988281 329.292969 C 779.253906 331.363281 781.425781 333.511719 783.449219 335.679688 C 789.660156 342.371094 795.015625 349.761719 799.367188 357.65625 C 800.941406 360.5 802.441406 363.550781 803.832031 366.730469 C 804.492188 368.222656 805.164062 369.875 805.894531 371.777344 C 806.324219 372.882812 806.722656 374.003906 807.109375 375.140625 C 809.121094 381.011719 810.632812 387.039062 811.605469 393.050781 L 811.773438 394.085938 L 811.117188 393.265625 C 810.035156 391.914062 809.339844 390.238281 808.945312 389.070312 C 807.707031 385.375 804.136719 380.996094 801.207031 378.128906 C 799.433594 376.386719 797.6875 373.515625 796.484375 371.300781 L 794.886719 372.785156 L 795.417969 378.328125 C 795.9375 379.046875 800.890625 385.890625 802.648438 388.0625 C 803.382812 388.96875 804.085938 390.898438 804.898438 393.128906 C 806.109375 396.449219 807.617188 400.578125 809.308594 400.765625 C 809.519531 400.792969 809.714844 400.804688 809.898438 400.804688 C 810.785156 400.804688 811.523438 400.558594 812.09375 400.070312 L 812.496094 399.726562 L 812.546875 400.253906 C 812.894531 403.839844 813.070312 407.476562 813.070312 411.070312 C 813.070312 411.652344 813.058594 412.246094 813.046875 412.832031 C 813.042969 413.472656 813.03125 413.988281 813.015625 414.515625 L 813.007812 414.75 C 812.984375 415.390625 812.957031 416.035156 812.917969 416.6875 C 812.894531 417.277344 812.855469 417.855469 812.816406 418.445312 C 812.78125 419.144531 812.726562 419.769531 812.671875 420.378906 L 812.53125 422.042969 C 812.441406 423.011719 812.320312 423.96875 812.203125 424.914062 L 811.992188 426.542969 C 811.839844 427.640625 811.671875 428.71875 811.480469 429.800781 C 811.328125 430.710938 811.164062 431.621094 810.984375 432.523438 C 810.546875 434.804688 810.019531 437.117188 809.40625 439.394531 C 807.976562 444.8125 806.148438 450.105469 803.972656 455.121094 C 802.382812 458.796875 800.515625 462.511719 798.421875 466.164062 L 798.382812 466.238281 C 797.203125 468.28125 795.910156 470.351562 794.425781 472.5625 C 793.433594 474.039062 792.429688 475.53125 791.371094 476.945312 L 791.230469 477.132812 Z M 767.898438 329.8125 C 767.878906 329.800781 766.195312 328.34375 764.472656 327.261719 C 764.003906 326.96875 763.097656 326.8125 761.851562 326.8125 C 759.636719 326.8125 757.046875 327.296875 757.019531 327.300781 L 756.726562 327.355469 L 756.152344 321.96875 L 756.375 321.90625 C 756.414062 321.894531 760.332031 320.761719 763.039062 318.617188 L 763.195312 318.496094 L 763.363281 318.605469 C 764.984375 319.671875 766.574219 320.785156 768.085938 321.90625 C 768.753906 322.398438 769.421875 322.902344 770.070312 323.414062 C 770.316406 323.605469 770.535156 323.773438 770.746094 323.949219 L 770.867188 324.050781 L 770.839844 324.207031 C 770.46875 326.367188 770.84375 328.804688 770.847656 328.828125 L 770.886719 329.066406 L 768.011719 329.914062 Z M 692.25 319.347656 C 690.257812 319.347656 689.691406 318.363281 689.566406 317.535156 C 689.269531 315.554688 691.171875 314.578125 692.429688 313.929688 C 692.875 313.703125 693.375 313.445312 693.457031 313.28125 C 693.464844 313.265625 693.46875 313.203125 693.410156 313.085938 C 692.992188 312.199219 690.492188 310.460938 687.902344 309.871094 C 684.8125 309.164062 677.480469 308.664062 677.40625 308.65625 L 677.125 308.636719 L 677.386719 305.828125 L 683.628906 304.78125 L 683.757812 303.417969 L 681.78125 302.425781 L 682.34375 302.195312 C 682.34375 302.195312 682.820312 302.003906 683.464844 301.800781 L 686.214844 301.367188 L 686.414062 301.382812 C 687.753906 301.664062 690.859375 302.945312 690.992188 303 L 691.285156 303.121094 L 690.539062 304.386719 L 688.085938 304.039062 L 688.605469 305.238281 C 688.617188 305.238281 689.898438 306.84375 691.222656 306.84375 C 692.707031 306.84375 698.554688 307.367188 698.804688 307.390625 L 699.078125 307.414062 L 699.054688 307.6875 C 699.042969 307.796875 698.824219 310.371094 698.558594 311.804688 C 698.335938 312.960938 700.601562 313.6875 700.621094 313.695312 L 700.886719 313.773438 L 700.808594 314.035156 C 700.4375 315.285156 698.890625 315.515625 697.394531 315.738281 C 696.648438 315.847656 695.878906 315.964844 695.296875 316.203125 C 694.910156 316.359375 694.667969 316.589844 694.558594 316.90625 C 694.304688 317.628906 694.820312 318.558594 694.824219 318.566406 L 694.992188 318.863281 L 694.667969 318.964844 C 694.621094 318.984375 693.453125 319.347656 692.25 319.347656 Z M 714.097656 317.097656 C 712.359375 317.097656 711.234375 315.292969 710.324219 313.839844 C 709.925781 313.203125 709.550781 312.601562 709.246094 312.386719 C 708.929688 312.164062 708.738281 311.746094 708.699219 311.175781 C 708.570312 309.390625 709.890625 306.113281 712.59375 303.566406 C 713.378906 302.832031 713.902344 302 714.152344 301.097656 L 714.214844 300.871094 L 714.449219 300.898438 C 719.886719 301.488281 725.335938 302.5 730.644531 303.90625 C 732.53125 304.40625 734.488281 304.988281 736.464844 305.632812 C 737.78125 306.058594 739.089844 306.503906 740.386719 306.984375 L 741.039062 307.222656 L 740.398438 307.496094 C 738.210938 308.425781 725.554688 311.78125 720.707031 311.78125 C 720.339844 311.78125 720.015625 311.761719 719.746094 311.722656 C 719.292969 312.625 717.28125 316.375 714.726562 317.019531 C 714.515625 317.070312 714.304688 317.097656 714.097656 317.097656 Z M 714.097656 317.097656 " fill-opacity="1" fill-rule="nonzero"/><g clip-path="url(#411885c9e6)"><path fill="#60767f" d="M 1028.578125 358.671875 C 1019.070312 358.671875 1010.378906 362.21875 1003.746094 368.042969 C 1002.117188 369.476562 1000.613281 371.050781 999.246094 372.746094 C 994.03125 379.203125 990.902344 387.410156 990.902344 396.351562 C 990.902344 408.835938 997.011719 419.914062 1006.394531 426.769531 C 1008.324219 428.191406 1010.394531 429.417969 1012.585938 430.453125 C 1017.445312 432.742188 1022.867188 434.027344 1028.578125 434.027344 C 1049.355469 434.027344 1066.253906 417.128906 1066.253906 396.351562 C 1066.253906 375.574219 1049.355469 358.671875 1028.578125 358.671875 Z M 1028.578125 431.269531 C 1009.289062 431.269531 993.660156 415.636719 993.660156 396.351562 C 993.660156 377.0625 1009.289062 361.433594 1028.578125 361.433594 C 1047.863281 361.433594 1063.496094 377.0625 1063.496094 396.351562 C 1063.496094 415.636719 1047.863281 431.269531 1028.578125 431.269531 Z M 1055.007812 383.144531 C 1055.007812 388.402344 1050.742188 392.667969 1045.484375 392.667969 C 1040.226562 392.667969 1035.964844 388.402344 1035.964844 383.144531 C 1035.964844 377.886719 1040.226562 373.625 1045.484375 373.625 C 1050.742188 373.625 1055.007812 377.886719 1055.007812 383.144531 Z M 1036.917969 395.183594 C 1036.917969 398.84375 1033.949219 401.808594 1030.289062 401.808594 C 1026.628906 401.808594 1023.664062 398.84375 1023.664062 395.183594 C 1023.664062 391.523438 1026.628906 388.554688 1030.289062 388.554688 C 1033.949219 388.554688 1036.917969 391.523438 1036.917969 395.183594 Z M 1038.707031 421.492188 C 1038.707031 424.535156 1036.238281 427.003906 1033.195312 427.003906 C 1030.152344 427.003906 1027.6875 424.535156 1027.6875 421.492188 C 1027.6875 418.449219 1030.152344 415.984375 1033.195312 415.984375 C 1036.238281 415.984375 1038.707031 418.449219 1038.707031 421.492188 Z M 1026.769531 379.800781 C 1028.484375 379.800781 1029.875 381.191406 1029.875 382.90625 C 1029.875 384.621094 1028.484375 386.011719 1026.769531 386.011719 C 1025.054688 386.011719 1023.664062 384.621094 1023.664062 382.90625 C 1023.664062 381.191406 1025.054688 379.800781 1026.769531 379.800781 Z M 1006.058594 389.875 C 1006.058594 392.097656 1004.257812 393.898438 1002.035156 393.898438 C 999.8125 393.898438 998.011719 392.097656 998.011719 389.875 C 998.011719 387.652344 999.8125 385.851562 1002.035156 385.851562 C 1004.257812 385.851562 1006.058594 387.652344 1006.058594 389.875 Z M 1008.53125 381.40625 C 1008.53125 383.21875 1007.0625 384.683594 1005.25 384.683594 C 1003.441406 384.683594 1001.972656 383.214844 1001.972656 381.40625 C 1001.972656 379.59375 1003.441406 378.125 1005.25 378.125 C 1007.0625 378.125 1008.53125 379.59375 1008.53125 381.40625 Z M 1020.441406 425.476562 C 1019.003906 425.476562 1017.839844 424.3125 1017.839844 422.875 C 1017.839844 421.441406 1019.003906 420.277344 1020.441406 420.277344 C 1021.875 420.277344 1023.039062 421.441406 1023.039062 422.875 C 1023.039062 424.3125 1021.875 425.476562 1020.441406 425.476562 Z M 1020.441406 425.476562 " fill-opacity="1" fill-rule="nonzero"/></g></svg>